<?xml version="1.0" encoding="us-ascii" standalone="no"?><svg xmlns="http://www.w3.org/2000/svg" xmlns:xlink="http://www.w3.org/1999/xlink" contentStyleType="text/css" height="2238px" preserveAspectRatio="none" style="width:1172px;height:2238px;background:#FFFFFF;" version="1.1" viewBox="0 0 1172 2238" width="1172px" zoomAndPan="magnify"><defs><linearGradient id="g11tpks6h99rrb0" x1="0%" x2="100%" y1="0%" y2="100%"><stop offset="0%" stop-color="#008000"/><stop offset="100%" stop-color="#00FFFF"/></linearGradient></defs><g><rect fill="none" height="22.6406" style="stroke:none;stroke-width:1.0;" width="1139.5" x="15" y="12.4551"/><ellipse cx="282" cy="50.0957" fill="#222222" rx="10" ry="10" style="stroke:#222222;stroke-width:1.0;"/><rect fill="url(#g11tpks6h99rrb0)" height="50.1875" rx="12.5" ry="12.5" style="stroke:#181818;stroke-width:0.5;" width="217" x="173.5" y="80.0957"/><text fill="#000000" font-family="sans-serif" font-size="12" lengthAdjust="spacing" textLength="197" x="183.5" y="102.5527">Choisir un langage de mod&#233;lisation</text><text fill="#000000" font-family="sans-serif" font-size="12" lengthAdjust="spacing" textLength="49" x="183.5" y="117.6465">standard</text><rect fill="#F1F1F1" height="35.0938" style="stroke:#181818;stroke-width:0.5;" width="45" x="259.5" y="150.2832"/><line style="stroke:#181818;stroke-width:0.5;" x1="264.5" x2="264.5" y1="150.2832" y2="185.377"/><line style="stroke:#181818;stroke-width:0.5;" x1="299.5" x2="299.5" y1="150.2832" y2="185.377"/><text fill="#000000" font-family="sans-serif" font-size="12" lengthAdjust="spacing" textLength="25" x="269.5" y="172.7402">UML</text><polygon fill="#F1F1F1" points="163,205.377,401,205.377,413,217.377,401,229.377,163,229.377,151,217.377,163,205.377" style="stroke:#181818;stroke-width:0.5;"/><text fill="#000000" font-family="sans-serif" font-size="11" lengthAdjust="spacing" textLength="238" x="163" y="221.8779">Le langage de mod&#233;lisation r&#233;pond-t-il au besoin?</text><text fill="#000000" font-family="sans-serif" font-size="11" lengthAdjust="spacing" textLength="18" x="133" y="214.96">yes</text><text fill="#000000" font-family="sans-serif" font-size="11" lengthAdjust="spacing" textLength="12" x="413" y="214.96">no</text><rect fill="#008000" height="35.0938" rx="12.5" ry="12.5" style="stroke:#181818;stroke-width:0.5;" width="87" x="97.5" y="239.377"/><text fill="#000000" font-family="sans-serif" font-size="12" lengthAdjust="spacing" textLength="67" x="107.5" y="261.834">Utiliser UML</text><path d="M567,243.748 L567,252.9238 L547,256.9238 L567,260.9238 L567,270.0996 A0,0 0 0 0 567,270.0996 L715,270.0996 A0,0 0 0 0 715,270.0996 L715,253.748 L705,243.748 L567,243.748 A0,0 0 0 0 567,243.748 " fill="#FEFFDD" style="stroke:#181818;stroke-width:0.5;"/><path d="M705,243.748 L705,253.748 L715,253.748 L705,243.748 " fill="#FEFFDD" style="stroke:#181818;stroke-width:0.5;"/><text fill="#000000" font-family="sans-serif" font-size="13" lengthAdjust="spacing" textLength="127" x="573" y="262.2432">chemin secondaire #1</text><rect fill="#00FFFF" height="35.0938" rx="12.5" ry="12.5" style="stroke:#181818;stroke-width:0.5;" width="248" x="299" y="239.377"/><text fill="#000000" font-family="sans-serif" font-size="12" lengthAdjust="spacing" textLength="228" x="309" y="261.834">Choisir un autre langage de mod&#233;lisation</text><polygon fill="#F1F1F1" points="282,280.4707,294,292.4707,282,304.4707,270,292.4707,282,280.4707" style="stroke:#181818;stroke-width:0.5;"/><rect fill="url(#g11tpks6h99rrb0)" height="35.0938" rx="12.5" ry="12.5" style="stroke:#181818;stroke-width:0.5;" width="231" x="166.5" y="324.4707"/><text fill="#000000" font-family="sans-serif" font-size="12" lengthAdjust="spacing" textLength="211" x="176.5" y="346.9277">Choisir un processus de mod&#233;lisation</text><rect fill="#F1F1F1" height="35.0938" style="stroke:#181818;stroke-width:0.5;" width="190" x="187" y="379.5645"/><line style="stroke:#181818;stroke-width:0.5;" x1="192" x2="192" y1="379.5645" y2="414.6582"/><line style="stroke:#181818;stroke-width:0.5;" x1="372" x2="372" y1="379.5645" y2="414.6582"/><text fill="#000000" font-family="sans-serif" font-size="12" lengthAdjust="spacing" textLength="170" x="197" y="402.0215">CPG-on-FHIR IG Agile Process</text><polygon fill="#F1F1F1" points="159,487.248,405,487.248,417,499.248,405,511.248,159,511.248,147,499.248,159,487.248" style="stroke:#181818;stroke-width:0.5;"/><text fill="#000000" font-family="sans-serif" font-size="11" lengthAdjust="spacing" textLength="246" x="159" y="503.749">Le procesus de mod&#233;lisation r&#233;pond-t-il au besoin?</text><text fill="#000000" font-family="sans-serif" font-size="11" lengthAdjust="spacing" textLength="18" x="129" y="496.8311">yes</text><text fill="#000000" font-family="sans-serif" font-size="11" lengthAdjust="spacing" textLength="12" x="417" y="496.8311">no</text><rect fill="#008000" height="35.0938" rx="12.5" ry="12.5" style="stroke:#181818;stroke-width:0.5;" width="232" x="21" y="521.248"/><text fill="#000000" font-family="sans-serif" font-size="12" lengthAdjust="spacing" textLength="212" x="31" y="543.7051">Utiliser CPG-on-FHIR IG Agile Process</text><path d="M579.5,525.6191 L579.5,534.7949 L559.5,538.7949 L579.5,542.7949 L579.5,551.9707 A0,0 0 0 0 579.5,551.9707 L727.5,551.9707 A0,0 0 0 0 727.5,551.9707 L727.5,535.6191 L717.5,525.6191 L579.5,525.6191 A0,0 0 0 0 579.5,525.6191 " fill="#FEFFDD" style="stroke:#181818;stroke-width:0.5;"/><path d="M717.5,525.6191 L717.5,535.6191 L727.5,535.6191 L717.5,525.6191 " fill="#FEFFDD" style="stroke:#181818;stroke-width:0.5;"/><text fill="#000000" font-family="sans-serif" font-size="13" lengthAdjust="spacing" textLength="127" x="585.5" y="544.1143">chemin secondaire #2</text><rect fill="#00FFFF" height="35.0938" rx="12.5" ry="12.5" style="stroke:#181818;stroke-width:0.5;" width="265" x="294.5" y="521.248"/><text fill="#000000" font-family="sans-serif" font-size="12" lengthAdjust="spacing" textLength="245" x="304.5" y="543.7051">:Choisir un autre processus de mod&#233;lisation</text><polygon fill="#F1F1F1" points="282,562.3418,294,574.3418,282,586.3418,270,574.3418,282,562.3418" style="stroke:#181818;stroke-width:0.5;"/><rect fill="url(#g11tpks6h99rrb0)" height="50.1875" rx="12.5" ry="12.5" style="stroke:#181818;stroke-width:0.5;" width="196" x="184" y="606.3418"/><text fill="#000000" font-family="sans-serif" font-size="12" lengthAdjust="spacing" textLength="176" x="194" y="628.7988">Choisir un mod&#232;le d'information</text><text fill="#000000" font-family="sans-serif" font-size="12" lengthAdjust="spacing" textLength="49" x="194" y="643.8926">standard</text><polygon fill="#F1F1F1" points="201,731.623,363,731.623,375,745.459,363,759.2949,201,759.2949,189,745.459,201,731.623" style="stroke:#181818;stroke-width:0.5;"/><text fill="#000000" font-family="sans-serif" font-size="11" lengthAdjust="spacing" textLength="159" x="201" y="743.042">Le mod&#232;le d'information standard</text><text fill="#000000" font-family="sans-serif" font-size="11" lengthAdjust="spacing" textLength="105" x="201" y="756.8779">r&#233;pond-t-il au besoin?</text><text fill="#000000" font-family="sans-serif" font-size="11" lengthAdjust="spacing" textLength="18" x="171" y="743.042">yes</text><text fill="#000000" font-family="sans-serif" font-size="11" lengthAdjust="spacing" textLength="12" x="375" y="743.042">no</text><rect fill="#008000" height="35.0938" rx="12.5" ry="12.5" style="stroke:#181818;stroke-width:0.5;" width="154" x="86" y="769.2949"/><text fill="#000000" font-family="sans-serif" font-size="12" lengthAdjust="spacing" textLength="134" x="96" y="791.752">Utiliser FHIR Version R4</text><path d="M562,773.666 L562,782.8418 L542,786.8418 L562,790.8418 L562,800.0176 A0,0 0 0 0 562,800.0176 L710,800.0176 A0,0 0 0 0 710,800.0176 L710,783.666 L700,773.666 L562,773.666 A0,0 0 0 0 562,773.666 " fill="#FEFFDD" style="stroke:#181818;stroke-width:0.5;"/><path d="M700,773.666 L700,783.666 L710,783.666 L700,773.666 " fill="#FEFFDD" style="stroke:#181818;stroke-width:0.5;"/><text fill="#000000" font-family="sans-serif" font-size="13" lengthAdjust="spacing" textLength="127" x="568" y="792.1611">chemin secondaire #3</text><rect fill="#00FFFF" height="35.0938" rx="12.5" ry="12.5" style="stroke:#181818;stroke-width:0.5;" width="282" x="260" y="769.2949"/><text fill="#000000" font-family="sans-serif" font-size="12" lengthAdjust="spacing" textLength="262" x="270" y="791.752">:Choisir un autre mod&#232;le d'information standard</text><polygon fill="#F1F1F1" points="282,810.3887,294,822.3887,282,834.3887,270,822.3887,282,810.3887" style="stroke:#181818;stroke-width:0.5;"/><rect fill="url(#g11tpks6h99rrb0)" height="50.1875" rx="12.5" ry="12.5" style="stroke:#181818;stroke-width:0.5;" width="227" x="168.5" y="854.3887"/><text fill="#000000" font-family="sans-serif" font-size="12" lengthAdjust="spacing" textLength="207" x="178.5" y="876.8457">Choisir un mod&#232;le de connaissances</text><text fill="#000000" font-family="sans-serif" font-size="12" lengthAdjust="spacing" textLength="103" x="178.5" y="891.9395">statiques standard</text><polygon fill="#F1F1F1" points="163.5,994.7637,400.5,994.7637,412.5,1008.5996,400.5,1022.4355,163.5,1022.4355,151.5,1008.5996,163.5,994.7637" style="stroke:#181818;stroke-width:0.5;"/><text fill="#000000" font-family="sans-serif" font-size="11" lengthAdjust="spacing" textLength="234" x="163.5" y="1006.1826">Le mod&#232;le de connaissances statiques standard</text><text fill="#000000" font-family="sans-serif" font-size="11" lengthAdjust="spacing" textLength="105" x="163.5" y="1020.0186">r&#233;pond-t-il au besoin?</text><text fill="#000000" font-family="sans-serif" font-size="11" lengthAdjust="spacing" textLength="18" x="133.5" y="1006.1826">yes</text><text fill="#000000" font-family="sans-serif" font-size="11" lengthAdjust="spacing" textLength="12" x="412.5" y="1006.1826">no</text><rect fill="#008000" height="50.1875" rx="12.5" ry="12.5" style="stroke:#181818;stroke-width:0.5;" width="188" x="47.5" y="1032.4355"/><text fill="#000000" font-family="sans-serif" font-size="12" lengthAdjust="spacing" textLength="168" x="57.5" y="1054.8926">Utiliser la ou les terminologies</text><text fill="#000000" font-family="sans-serif" font-size="12" lengthAdjust="spacing" textLength="158" x="57.5" y="1069.9863">recommand&#233;es par le CGTS</text><path d="M573,1044.3535 L573,1053.5293 L553,1057.5293 L573,1061.5293 L573,1070.7051 A0,0 0 0 0 573,1070.7051 L721,1070.7051 A0,0 0 0 0 721,1070.7051 L721,1054.3535 L711,1044.3535 L573,1044.3535 A0,0 0 0 0 573,1044.3535 " fill="#FEFFDD" style="stroke:#181818;stroke-width:0.5;"/><path d="M711,1044.3535 L711,1054.3535 L721,1054.3535 L711,1044.3535 " fill="#FEFFDD" style="stroke:#181818;stroke-width:0.5;"/><text fill="#000000" font-family="sans-serif" font-size="13" lengthAdjust="spacing" textLength="127" x="579" y="1062.8486">chemin secondaire #4</text><rect fill="#00FFFF" height="50.1875" rx="12.5" ry="12.5" style="stroke:#181818;stroke-width:0.5;" width="261" x="292" y="1032.4355"/><text fill="#000000" font-family="sans-serif" font-size="12" lengthAdjust="spacing" textLength="241" x="302" y="1054.8926">:Choisir un autre mod&#232;le de connaissances</text><text fill="#000000" font-family="sans-serif" font-size="12" lengthAdjust="spacing" textLength="103" x="302" y="1069.9863">statiques standard</text><polygon fill="#F1F1F1" points="282,1088.623,294,1100.623,282,1112.623,270,1100.623,282,1088.623" style="stroke:#181818;stroke-width:0.5;"/><rect fill="url(#g11tpks6h99rrb0)" height="50.1875" rx="12.5" ry="12.5" style="stroke:#181818;stroke-width:0.5;" width="227" x="168.5" y="1132.623"/><text fill="#000000" font-family="sans-serif" font-size="12" lengthAdjust="spacing" textLength="207" x="178.5" y="1155.0801">Choisir un mod&#232;le de connaissances</text><text fill="#000000" font-family="sans-serif" font-size="12" lengthAdjust="spacing" textLength="120" x="178.5" y="1170.1738">dyanmiques standard</text><rect fill="#F1F1F1" height="50.1875" style="stroke:#181818;stroke-width:0.5;" width="160" x="202" y="1202.8105"/><line style="stroke:#181818;stroke-width:0.5;" x1="207" x2="207" y1="1202.8105" y2="1252.998"/><line style="stroke:#181818;stroke-width:0.5;" x1="357" x2="357" y1="1202.8105" y2="1252.998"/><text fill="#000000" font-family="sans-serif" font-size="12" lengthAdjust="spacing" textLength="140" x="212" y="1225.2676">Clinical Quality Language</text><text fill="#000000" font-family="sans-serif" font-size="12" lengthAdjust="spacing" textLength="33" x="212" y="1240.3613">(CQL)</text><polygon fill="#F1F1F1" points="156.5,1272.998,407.5,1272.998,419.5,1286.834,407.5,1300.6699,156.5,1300.6699,144.5,1286.834,156.5,1272.998" style="stroke:#181818;stroke-width:0.5;"/><text fill="#000000" font-family="sans-serif" font-size="11" lengthAdjust="spacing" textLength="248" x="156.5" y="1284.417">Le mod&#232;le de connaissances dynamiques standard</text><text fill="#000000" font-family="sans-serif" font-size="11" lengthAdjust="spacing" textLength="105" x="156.5" y="1298.2529">r&#233;pond-t-il au besoin?</text><text fill="#000000" font-family="sans-serif" font-size="11" lengthAdjust="spacing" textLength="18" x="126.5" y="1284.417">yes</text><text fill="#000000" font-family="sans-serif" font-size="11" lengthAdjust="spacing" textLength="12" x="419.5" y="1284.417">no</text><rect fill="#008000" height="35.0938" rx="12.5" ry="12.5" style="stroke:#181818;stroke-width:0.5;" width="87" x="91" y="1310.6699"/><text fill="#000000" font-family="sans-serif" font-size="12" lengthAdjust="spacing" textLength="67" x="101" y="1333.127">Utiliser CQL</text><path d="M580,1322.5879 L580,1331.7637 L560,1335.7637 L580,1339.7637 L580,1348.9395 A0,0 0 0 0 580,1348.9395 L728,1348.9395 A0,0 0 0 0 728,1348.9395 L728,1332.5879 L718,1322.5879 L580,1322.5879 A0,0 0 0 0 580,1322.5879 " fill="#FEFFDD" style="stroke:#181818;stroke-width:0.5;"/><path d="M718,1322.5879 L718,1332.5879 L728,1332.5879 L718,1322.5879 " fill="#FEFFDD" style="stroke:#181818;stroke-width:0.5;"/><text fill="#000000" font-family="sans-serif" font-size="13" lengthAdjust="spacing" textLength="127" x="586" y="1341.083">chemin secondaire #5</text><rect fill="#00FFFF" height="50.1875" rx="12.5" ry="12.5" style="stroke:#181818;stroke-width:0.5;" width="261" x="299" y="1310.6699"/><text fill="#000000" font-family="sans-serif" font-size="12" lengthAdjust="spacing" textLength="241" x="309" y="1333.127">:Choisir un autre mod&#232;le de connaissances</text><text fill="#000000" font-family="sans-serif" font-size="12" lengthAdjust="spacing" textLength="103" x="309" y="1348.2207">statiques standard</text><polygon fill="#F1F1F1" points="282,1366.8574,294,1378.8574,282,1390.8574,270,1378.8574,282,1366.8574" style="stroke:#181818;stroke-width:0.5;"/><rect fill="url(#g11tpks6h99rrb0)" height="50.1875" rx="12.5" ry="12.5" style="stroke:#181818;stroke-width:0.5;" width="293" x="135.5" y="1410.8574"/><text fill="#000000" font-family="sans-serif" font-size="12" lengthAdjust="spacing" textLength="270" x="148.5" y="1433.3145">choisir un des designs pattern architectural d&#233;crit</text><text fill="#000000" font-family="sans-serif" font-size="12" lengthAdjust="spacing" textLength="258" x="145.5" y="1448.4082">dans le principe 4.4.4.4 de la doctrine du SI-CM</text><rect fill="url(#g11tpks6h99rrb0)" height="35.0938" rx="12.5" ry="12.5" style="stroke:#181818;stroke-width:0.5;" width="199" x="182.5" y="1481.0449"/><text fill="#000000" font-family="sans-serif" font-size="12" lengthAdjust="spacing" textLength="179" x="192.5" y="1503.502">Choisir un standard d'int&#233;gration</text><rect fill="#F1F1F1" height="35.0938" style="stroke:#181818;stroke-width:0.5;" width="85" x="239.5" y="1536.1387"/><line style="stroke:#181818;stroke-width:0.5;" x1="244.5" x2="244.5" y1="1536.1387" y2="1571.2324"/><line style="stroke:#181818;stroke-width:0.5;" x1="319.5" x2="319.5" y1="1536.1387" y2="1571.2324"/><text fill="#000000" font-family="sans-serif" font-size="12" lengthAdjust="spacing" textLength="65" x="249.5" y="1558.5957">CDS Hooks</text><polygon fill="#F1F1F1" points="221,1591.2324,343,1591.2324,355,1605.0684,343,1618.9043,221,1618.9043,209,1605.0684,221,1591.2324" style="stroke:#181818;stroke-width:0.5;"/><text fill="#000000" font-family="sans-serif" font-size="11" lengthAdjust="spacing" textLength="119" x="221" y="1602.6514">Le standard d'int&#233;gration</text><text fill="#000000" font-family="sans-serif" font-size="11" lengthAdjust="spacing" textLength="105" x="221" y="1616.4873">r&#233;pond-t-il au besoin?</text><text fill="#000000" font-family="sans-serif" font-size="11" lengthAdjust="spacing" textLength="18" x="191" y="1602.6514">yes</text><text fill="#000000" font-family="sans-serif" font-size="11" lengthAdjust="spacing" textLength="12" x="355" y="1602.6514">no</text><rect fill="#008000" height="35.0938" rx="12.5" ry="12.5" style="stroke:#181818;stroke-width:0.5;" width="127" x="118.5" y="1628.9043"/><text fill="#000000" font-family="sans-serif" font-size="12" lengthAdjust="spacing" textLength="107" x="128.5" y="1651.3613">Utiliser CDS Hooks</text><path d="M518.5,1633.2754 L518.5,1642.4512 L498.5,1646.4512 L518.5,1650.4512 L518.5,1659.627 A0,0 0 0 0 518.5,1659.627 L666.5,1659.627 A0,0 0 0 0 666.5,1659.627 L666.5,1643.2754 L656.5,1633.2754 L518.5,1633.2754 A0,0 0 0 0 518.5,1633.2754 " fill="#FEFFDD" style="stroke:#181818;stroke-width:0.5;"/><path d="M656.5,1633.2754 L656.5,1643.2754 L666.5,1643.2754 L656.5,1633.2754 " fill="#FEFFDD" style="stroke:#181818;stroke-width:0.5;"/><text fill="#000000" font-family="sans-serif" font-size="13" lengthAdjust="spacing" textLength="127" x="524.5" y="1651.7705">chemin secondaire #6</text><rect fill="#00FFFF" height="35.0938" rx="12.5" ry="12.5" style="stroke:#181818;stroke-width:0.5;" width="233" x="265.5" y="1628.9043"/><text fill="#000000" font-family="sans-serif" font-size="12" lengthAdjust="spacing" textLength="213" x="275.5" y="1651.3613">:Choisir un autre standard d'int&#233;gration</text><polygon fill="#F1F1F1" points="282,1669.998,294,1681.998,282,1693.998,270,1681.998,282,1669.998" style="stroke:#181818;stroke-width:0.5;"/><rect fill="url(#g11tpks6h99rrb0)" height="35.0938" rx="12.5" ry="12.5" style="stroke:#181818;stroke-width:0.5;" width="206" x="179" y="1713.998"/><text fill="#000000" font-family="sans-serif" font-size="12" lengthAdjust="spacing" textLength="186" x="189" y="1736.4551">Choisir une licence de publication</text><rect fill="#F1F1F1" height="35.0938" style="stroke:#181818;stroke-width:0.5;" width="46" x="259" y="1769.0918"/><line style="stroke:#181818;stroke-width:0.5;" x1="264" x2="264" y1="1769.0918" y2="1804.1855"/><line style="stroke:#181818;stroke-width:0.5;" x1="300" x2="300" y1="1769.0918" y2="1804.1855"/><text fill="#000000" font-family="sans-serif" font-size="12" lengthAdjust="spacing" textLength="26" x="269" y="1791.5488">Lov2</text><polygon fill="#F1F1F1" points="190.5,1824.1855,373.5,1824.1855,385.5,1838.0215,373.5,1851.8574,190.5,1851.8574,178.5,1838.0215,190.5,1824.1855" style="stroke:#181818;stroke-width:0.5;"/><text fill="#000000" font-family="sans-serif" font-size="11" lengthAdjust="spacing" textLength="180" x="190.5" y="1835.6045">La licence de pubication r&#233;pond-t-elle</text><text fill="#000000" font-family="sans-serif" font-size="11" lengthAdjust="spacing" textLength="53" x="190.5" y="1849.4404">au besoin?</text><text fill="#000000" font-family="sans-serif" font-size="11" lengthAdjust="spacing" textLength="18" x="160.5" y="1835.6045">yes</text><text fill="#000000" font-family="sans-serif" font-size="11" lengthAdjust="spacing" textLength="12" x="385.5" y="1835.6045">no</text><rect fill="#008000" height="35.0938" rx="12.5" ry="12.5" style="stroke:#181818;stroke-width:0.5;" width="88" x="124.5" y="1861.8574"/><text fill="#000000" font-family="sans-serif" font-size="12" lengthAdjust="spacing" textLength="68" x="134.5" y="1884.3145">Utiliser Lov2</text><path d="M535.5,1866.2285 L535.5,1875.4043 L515.5,1879.4043 L535.5,1883.4043 L535.5,1892.5801 A0,0 0 0 0 535.5,1892.5801 L683.5,1892.5801 A0,0 0 0 0 683.5,1892.5801 L683.5,1876.2285 L673.5,1866.2285 L535.5,1866.2285 A0,0 0 0 0 535.5,1866.2285 " fill="#FEFFDD" style="stroke:#181818;stroke-width:0.5;"/><path d="M673.5,1866.2285 L673.5,1876.2285 L683.5,1876.2285 L673.5,1866.2285 " fill="#FEFFDD" style="stroke:#181818;stroke-width:0.5;"/><text fill="#000000" font-family="sans-serif" font-size="13" lengthAdjust="spacing" textLength="127" x="541.5" y="1884.7236">chemin secondaire #7</text><rect fill="#00FFFF" height="35.0938" rx="12.5" ry="12.5" style="stroke:#181818;stroke-width:0.5;" width="240" x="275.5" y="1861.8574"/><text fill="#000000" font-family="sans-serif" font-size="12" lengthAdjust="spacing" textLength="220" x="285.5" y="1884.3145">:Choisir une autre licence de publication</text><polygon fill="#F1F1F1" points="282,1902.9512,294,1914.9512,282,1926.9512,270,1914.9512,282,1902.9512" style="stroke:#181818;stroke-width:0.5;"/><rect fill="url(#g11tpks6h99rrb0)" height="35.0938" rx="12.5" ry="12.5" style="stroke:#181818;stroke-width:0.5;" width="195" x="184.5" y="1946.9512"/><text fill="#000000" font-family="sans-serif" font-size="12" lengthAdjust="spacing" textLength="175" x="194.5" y="1969.4082">Choisir un format de publication</text><rect fill="#F1F1F1" height="35.0938" style="stroke:#181818;stroke-width:0.5;" width="63" x="250.5" y="2002.0449"/><line style="stroke:#181818;stroke-width:0.5;" x1="255.5" x2="255.5" y1="2002.0449" y2="2037.1387"/><line style="stroke:#181818;stroke-width:0.5;" x1="308.5" x2="308.5" y1="2002.0449" y2="2037.1387"/><text fill="#000000" font-family="sans-serif" font-size="12" lengthAdjust="spacing" textLength="43" x="260.5" y="2024.502">IG FHIR</text><polygon fill="#F1F1F1" points="197,2057.1387,367,2057.1387,379,2070.9746,367,2084.8105,197,2084.8105,185,2070.9746,197,2057.1387" style="stroke:#181818;stroke-width:0.5;"/><text fill="#000000" font-family="sans-serif" font-size="11" lengthAdjust="spacing" textLength="167" x="197" y="2068.5576">Le format de publication r&#233;pond-t-il</text><text fill="#000000" font-family="sans-serif" font-size="11" lengthAdjust="spacing" textLength="53" x="197" y="2082.3936">au besoin?</text><text fill="#000000" font-family="sans-serif" font-size="11" lengthAdjust="spacing" textLength="18" x="167" y="2068.5576">yes</text><text fill="#000000" font-family="sans-serif" font-size="11" lengthAdjust="spacing" textLength="12" x="379" y="2068.5576">no</text><rect fill="#008000" height="35.0938" rx="12.5" ry="12.5" style="stroke:#181818;stroke-width:0.5;" width="105" x="122.5" y="2094.8105"/><text fill="#000000" font-family="sans-serif" font-size="12" lengthAdjust="spacing" textLength="85" x="132.5" y="2117.2676">Utiliser IG FHIR</text><path d="M523.5,2099.1816 L523.5,2108.3574 L503.5,2112.3574 L523.5,2116.3574 L523.5,2125.5332 A0,0 0 0 0 523.5,2125.5332 L671.5,2125.5332 A0,0 0 0 0 671.5,2125.5332 L671.5,2109.1816 L661.5,2099.1816 L523.5,2099.1816 A0,0 0 0 0 523.5,2099.1816 " fill="#FEFFDD" style="stroke:#181818;stroke-width:0.5;"/><path d="M661.5,2099.1816 L661.5,2109.1816 L671.5,2109.1816 L661.5,2099.1816 " fill="#FEFFDD" style="stroke:#181818;stroke-width:0.5;"/><text fill="#000000" font-family="sans-serif" font-size="13" lengthAdjust="spacing" textLength="127" x="529.5" y="2117.6768">chemin secondaire #8</text><rect fill="#00FFFF" height="35.0938" rx="12.5" ry="12.5" style="stroke:#181818;stroke-width:0.5;" width="229" x="274.5" y="2094.8105"/><text fill="#000000" font-family="sans-serif" font-size="12" lengthAdjust="spacing" textLength="209" x="284.5" y="2117.2676">:Choisir un autre format de publication</text><polygon fill="#F1F1F1" points="282,2135.9043,294,2147.9043,282,2159.9043,270,2147.9043,282,2135.9043" style="stroke:#181818;stroke-width:0.5;"/><ellipse cx="282" cy="2190.9043" fill="none" rx="11" ry="11" style="stroke:#222222;stroke-width:1.0;"/><ellipse cx="282" cy="2190.9043" fill="#222222" rx="6" ry="6" style="stroke:#222222;stroke-width:1.0;"/><polygon fill="#F1F1F1" points="184.5,434.6582,379.5,434.6582,391.5,448.4941,379.5,462.3301,184.5,462.3301,172.5,448.4941,184.5,434.6582" style="stroke:#181818;stroke-width:0.5;"/><text fill="#000000" font-family="sans-serif" font-size="11" lengthAdjust="spacing" textLength="18" x="286" y="473.749">yes</text><text fill="#000000" font-family="sans-serif" font-size="11" lengthAdjust="spacing" textLength="180" x="184.5" y="446.0771">Le procesus respect-t-il les principes</text><text fill="#000000" font-family="sans-serif" font-size="11" lengthAdjust="spacing" textLength="195" x="184.5" y="459.9131">4.4.4.1, 4.4.4.2 de la doctrine du SI-CM ?</text><text fill="#000000" font-family="sans-serif" font-size="11" lengthAdjust="spacing" textLength="12" x="391.5" y="446.0771">no</text><ellipse cx="425.5" cy="448.4941" fill="none" rx="11" ry="11" style="stroke:#222222;stroke-width:1.0;"/><ellipse cx="425.5" cy="448.4941" fill="#222222" rx="6" ry="6" style="stroke:#222222;stroke-width:1.0;"/><line style="stroke:#000000;stroke-width:1.5;" x1="15" x2="15" y1="12.4551" y2="2226.8223"/><rect fill="#F1F1F1" height="35.0938" style="stroke:#181818;stroke-width:0.5;" width="186" x="739" y="676.5293"/><line style="stroke:#181818;stroke-width:0.5;" x1="744" x2="744" y1="676.5293" y2="711.623"/><line style="stroke:#181818;stroke-width:0.5;" x1="920" x2="920" y1="676.5293" y2="711.623"/><text fill="#000000" font-family="sans-serif" font-size="12" lengthAdjust="spacing" textLength="166" x="749" y="698.9863">Mod&#232;le d'information standard</text><line style="stroke:#000000;stroke-width:1.5;" x1="733" x2="733" y1="12.4551" y2="2226.8223"/><rect fill="#F1F1F1" height="50.1875" style="stroke:#181818;stroke-width:0.5;" width="214" x="935" y="924.5762"/><line style="stroke:#181818;stroke-width:0.5;" x1="940" x2="940" y1="924.5762" y2="974.7637"/><line style="stroke:#181818;stroke-width:0.5;" x1="1144" x2="1144" y1="924.5762" y2="974.7637"/><text fill="#000000" font-family="sans-serif" font-size="12" lengthAdjust="spacing" textLength="190" x="945" y="947.0332">Mod&#232;le mod&#232;le de connaissances</text><text fill="#000000" font-family="sans-serif" font-size="12" lengthAdjust="spacing" textLength="194" x="945" y="962.127">statiques standard (Terminologies)</text><line style="stroke:#000000;stroke-width:1.5;" x1="929" x2="929" y1="12.4551" y2="2226.8223"/><line style="stroke:#000000;stroke-width:1.5;" x1="1153" x2="1153" y1="12.4551" y2="2226.8223"/><line style="stroke:#181818;stroke-width:1.0;" x1="282" x2="282" y1="60.0957" y2="80.0957"/><polygon fill="#181818" points="278,70.0957,282,80.0957,286,70.0957,282,74.0957" style="stroke:#181818;stroke-width:1.0;"/><line style="stroke:#181818;stroke-width:1.0;" x1="282" x2="282" y1="130.2832" y2="150.2832"/><polygon fill="#181818" points="278,140.2832,282,150.2832,286,140.2832,282,144.2832" style="stroke:#181818;stroke-width:1.0;"/><line style="stroke:#181818;stroke-width:1.0;" x1="151" x2="141" y1="217.377" y2="217.377"/><line style="stroke:#181818;stroke-width:1.0;" x1="141" x2="141" y1="217.377" y2="239.377"/><polygon fill="#181818" points="137,229.377,141,239.377,145,229.377,141,233.377" style="stroke:#181818;stroke-width:1.0;"/><line style="stroke:#181818;stroke-width:1.0;" x1="413" x2="423" y1="217.377" y2="217.377"/><line style="stroke:#181818;stroke-width:1.0;" x1="423" x2="423" y1="217.377" y2="239.377"/><polygon fill="#181818" points="419,229.377,423,239.377,427,229.377,423,233.377" style="stroke:#181818;stroke-width:1.0;"/><line style="stroke:#181818;stroke-width:1.0;" x1="141" x2="141" y1="274.4707" y2="292.4707"/><line style="stroke:#181818;stroke-width:1.0;" x1="141" x2="270" y1="292.4707" y2="292.4707"/><polygon fill="#181818" points="260,288.4707,270,292.4707,260,296.4707,264,292.4707" style="stroke:#181818;stroke-width:1.0;"/><line style="stroke:#181818;stroke-width:1.0;" x1="423" x2="423" y1="274.4707" y2="292.4707"/><line style="stroke:#181818;stroke-width:1.0;" x1="423" x2="294" y1="292.4707" y2="292.4707"/><polygon fill="#181818" points="304,288.4707,294,292.4707,304,296.4707,300,292.4707" style="stroke:#181818;stroke-width:1.0;"/><line style="stroke:#181818;stroke-width:1.0;" x1="282" x2="282" y1="185.377" y2="205.377"/><polygon fill="#181818" points="278,195.377,282,205.377,286,195.377,282,199.377" style="stroke:#181818;stroke-width:1.0;"/><line style="stroke:#181818;stroke-width:1.0;" x1="282" x2="282" y1="304.4707" y2="324.4707"/><polygon fill="#181818" points="278,314.4707,282,324.4707,286,314.4707,282,318.4707" style="stroke:#181818;stroke-width:1.0;"/><line style="stroke:#181818;stroke-width:1.0;" x1="282" x2="282" y1="359.5645" y2="379.5645"/><polygon fill="#181818" points="278,369.5645,282,379.5645,286,369.5645,282,373.5645" style="stroke:#181818;stroke-width:1.0;"/><line style="stroke:#181818;stroke-width:1.0;" x1="147" x2="137" y1="499.248" y2="499.248"/><line style="stroke:#181818;stroke-width:1.0;" x1="137" x2="137" y1="499.248" y2="521.248"/><polygon fill="#181818" points="133,511.248,137,521.248,141,511.248,137,515.248" style="stroke:#181818;stroke-width:1.0;"/><line style="stroke:#181818;stroke-width:1.0;" x1="417" x2="427" y1="499.248" y2="499.248"/><line style="stroke:#181818;stroke-width:1.0;" x1="427" x2="427" y1="499.248" y2="521.248"/><polygon fill="#181818" points="423,511.248,427,521.248,431,511.248,427,515.248" style="stroke:#181818;stroke-width:1.0;"/><line style="stroke:#181818;stroke-width:1.0;" x1="137" x2="137" y1="556.3418" y2="574.3418"/><line style="stroke:#181818;stroke-width:1.0;" x1="137" x2="270" y1="574.3418" y2="574.3418"/><polygon fill="#181818" points="260,570.3418,270,574.3418,260,578.3418,264,574.3418" style="stroke:#181818;stroke-width:1.0;"/><line style="stroke:#181818;stroke-width:1.0;" x1="427" x2="427" y1="556.3418" y2="574.3418"/><line style="stroke:#181818;stroke-width:1.0;" x1="427" x2="294" y1="574.3418" y2="574.3418"/><polygon fill="#181818" points="304,570.3418,294,574.3418,304,578.3418,300,574.3418" style="stroke:#181818;stroke-width:1.0;"/><line style="stroke:#181818;stroke-width:1.0;" x1="282" x2="282" y1="586.3418" y2="606.3418"/><polygon fill="#181818" points="278,596.3418,282,606.3418,286,596.3418,282,600.3418" style="stroke:#181818;stroke-width:1.0;"/><line style="stroke:#181818;stroke-width:1.0;" x1="189" x2="163" y1="745.459" y2="745.459"/><line style="stroke:#181818;stroke-width:1.0;" x1="163" x2="163" y1="745.459" y2="769.2949"/><polygon fill="#181818" points="159,759.2949,163,769.2949,167,759.2949,163,763.2949" style="stroke:#181818;stroke-width:1.0;"/><line style="stroke:#181818;stroke-width:1.0;" x1="375" x2="401" y1="745.459" y2="745.459"/><line style="stroke:#181818;stroke-width:1.0;" x1="401" x2="401" y1="745.459" y2="769.2949"/><polygon fill="#181818" points="397,759.2949,401,769.2949,405,759.2949,401,763.2949" style="stroke:#181818;stroke-width:1.0;"/><line style="stroke:#181818;stroke-width:1.0;" x1="163" x2="163" y1="804.3887" y2="822.3887"/><line style="stroke:#181818;stroke-width:1.0;" x1="163" x2="270" y1="822.3887" y2="822.3887"/><polygon fill="#181818" points="260,818.3887,270,822.3887,260,826.3887,264,822.3887" style="stroke:#181818;stroke-width:1.0;"/><line style="stroke:#181818;stroke-width:1.0;" x1="401" x2="401" y1="804.3887" y2="822.3887"/><line style="stroke:#181818;stroke-width:1.0;" x1="401" x2="294" y1="822.3887" y2="822.3887"/><polygon fill="#181818" points="304,818.3887,294,822.3887,304,826.3887,300,822.3887" style="stroke:#181818;stroke-width:1.0;"/><line style="stroke:#181818;stroke-width:1.0;" x1="282" x2="282" y1="834.3887" y2="854.3887"/><polygon fill="#181818" points="278,844.3887,282,854.3887,286,844.3887,282,848.3887" style="stroke:#181818;stroke-width:1.0;"/><line style="stroke:#181818;stroke-width:1.0;" x1="151.5" x2="141.5" y1="1008.5996" y2="1008.5996"/><line style="stroke:#181818;stroke-width:1.0;" x1="141.5" x2="141.5" y1="1008.5996" y2="1032.4355"/><polygon fill="#181818" points="137.5,1022.4355,141.5,1032.4355,145.5,1022.4355,141.5,1026.4355" style="stroke:#181818;stroke-width:1.0;"/><line style="stroke:#181818;stroke-width:1.0;" x1="412.5" x2="422.5" y1="1008.5996" y2="1008.5996"/><line style="stroke:#181818;stroke-width:1.0;" x1="422.5" x2="422.5" y1="1008.5996" y2="1032.4355"/><polygon fill="#181818" points="418.5,1022.4355,422.5,1032.4355,426.5,1022.4355,422.5,1026.4355" style="stroke:#181818;stroke-width:1.0;"/><line style="stroke:#181818;stroke-width:1.0;" x1="141.5" x2="141.5" y1="1082.623" y2="1100.623"/><line style="stroke:#181818;stroke-width:1.0;" x1="141.5" x2="270" y1="1100.623" y2="1100.623"/><polygon fill="#181818" points="260,1096.623,270,1100.623,260,1104.623,264,1100.623" style="stroke:#181818;stroke-width:1.0;"/><line style="stroke:#181818;stroke-width:1.0;" x1="422.5" x2="422.5" y1="1082.623" y2="1100.623"/><line style="stroke:#181818;stroke-width:1.0;" x1="422.5" x2="294" y1="1100.623" y2="1100.623"/><polygon fill="#181818" points="304,1096.623,294,1100.623,304,1104.623,300,1100.623" style="stroke:#181818;stroke-width:1.0;"/><line style="stroke:#181818;stroke-width:1.0;" x1="282" x2="282" y1="1112.623" y2="1132.623"/><polygon fill="#181818" points="278,1122.623,282,1132.623,286,1122.623,282,1126.623" style="stroke:#181818;stroke-width:1.0;"/><line style="stroke:#181818;stroke-width:1.0;" x1="282" x2="282" y1="1182.8105" y2="1202.8105"/><polygon fill="#181818" points="278,1192.8105,282,1202.8105,286,1192.8105,282,1196.8105" style="stroke:#181818;stroke-width:1.0;"/><line style="stroke:#181818;stroke-width:1.0;" x1="144.5" x2="134.5" y1="1286.834" y2="1286.834"/><line style="stroke:#181818;stroke-width:1.0;" x1="134.5" x2="134.5" y1="1286.834" y2="1310.6699"/><polygon fill="#181818" points="130.5,1300.6699,134.5,1310.6699,138.5,1300.6699,134.5,1304.6699" style="stroke:#181818;stroke-width:1.0;"/><line style="stroke:#181818;stroke-width:1.0;" x1="419.5" x2="429.5" y1="1286.834" y2="1286.834"/><line style="stroke:#181818;stroke-width:1.0;" x1="429.5" x2="429.5" y1="1286.834" y2="1310.6699"/><polygon fill="#181818" points="425.5,1300.6699,429.5,1310.6699,433.5,1300.6699,429.5,1304.6699" style="stroke:#181818;stroke-width:1.0;"/><line style="stroke:#181818;stroke-width:1.0;" x1="134.5" x2="134.5" y1="1345.7637" y2="1378.8574"/><line style="stroke:#181818;stroke-width:1.0;" x1="134.5" x2="270" y1="1378.8574" y2="1378.8574"/><polygon fill="#181818" points="260,1374.8574,270,1378.8574,260,1382.8574,264,1378.8574" style="stroke:#181818;stroke-width:1.0;"/><line style="stroke:#181818;stroke-width:1.0;" x1="429.5" x2="429.5" y1="1360.8574" y2="1378.8574"/><line style="stroke:#181818;stroke-width:1.0;" x1="429.5" x2="294" y1="1378.8574" y2="1378.8574"/><polygon fill="#181818" points="304,1374.8574,294,1378.8574,304,1382.8574,300,1378.8574" style="stroke:#181818;stroke-width:1.0;"/><line style="stroke:#181818;stroke-width:1.0;" x1="282" x2="282" y1="1252.998" y2="1272.998"/><polygon fill="#181818" points="278,1262.998,282,1272.998,286,1262.998,282,1266.998" style="stroke:#181818;stroke-width:1.0;"/><line style="stroke:#181818;stroke-width:1.0;" x1="282" x2="282" y1="1390.8574" y2="1410.8574"/><polygon fill="#181818" points="278,1400.8574,282,1410.8574,286,1400.8574,282,1404.8574" style="stroke:#181818;stroke-width:1.0;"/><line style="stroke:#181818;stroke-width:1.0;" x1="282" x2="282" y1="1461.0449" y2="1481.0449"/><polygon fill="#181818" points="278,1471.0449,282,1481.0449,286,1471.0449,282,1475.0449" style="stroke:#181818;stroke-width:1.0;"/><line style="stroke:#181818;stroke-width:1.0;" x1="282" x2="282" y1="1516.1387" y2="1536.1387"/><polygon fill="#181818" points="278,1526.1387,282,1536.1387,286,1526.1387,282,1530.1387" style="stroke:#181818;stroke-width:1.0;"/><line style="stroke:#181818;stroke-width:1.0;" x1="209" x2="182" y1="1605.0684" y2="1605.0684"/><line style="stroke:#181818;stroke-width:1.0;" x1="182" x2="182" y1="1605.0684" y2="1628.9043"/><polygon fill="#181818" points="178,1618.9043,182,1628.9043,186,1618.9043,182,1622.9043" style="stroke:#181818;stroke-width:1.0;"/><line style="stroke:#181818;stroke-width:1.0;" x1="355" x2="382" y1="1605.0684" y2="1605.0684"/><line style="stroke:#181818;stroke-width:1.0;" x1="382" x2="382" y1="1605.0684" y2="1628.9043"/><polygon fill="#181818" points="378,1618.9043,382,1628.9043,386,1618.9043,382,1622.9043" style="stroke:#181818;stroke-width:1.0;"/><line style="stroke:#181818;stroke-width:1.0;" x1="182" x2="182" y1="1663.998" y2="1681.998"/><line style="stroke:#181818;stroke-width:1.0;" x1="182" x2="270" y1="1681.998" y2="1681.998"/><polygon fill="#181818" points="260,1677.998,270,1681.998,260,1685.998,264,1681.998" style="stroke:#181818;stroke-width:1.0;"/><line style="stroke:#181818;stroke-width:1.0;" x1="382" x2="382" y1="1663.998" y2="1681.998"/><line style="stroke:#181818;stroke-width:1.0;" x1="382" x2="294" y1="1681.998" y2="1681.998"/><polygon fill="#181818" points="304,1677.998,294,1681.998,304,1685.998,300,1681.998" style="stroke:#181818;stroke-width:1.0;"/><line style="stroke:#181818;stroke-width:1.0;" x1="282" x2="282" y1="1571.2324" y2="1591.2324"/><polygon fill="#181818" points="278,1581.2324,282,1591.2324,286,1581.2324,282,1585.2324" style="stroke:#181818;stroke-width:1.0;"/><line style="stroke:#181818;stroke-width:1.0;" x1="282" x2="282" y1="1693.998" y2="1713.998"/><polygon fill="#181818" points="278,1703.998,282,1713.998,286,1703.998,282,1707.998" style="stroke:#181818;stroke-width:1.0;"/><line style="stroke:#181818;stroke-width:1.0;" x1="282" x2="282" y1="1749.0918" y2="1769.0918"/><polygon fill="#181818" points="278,1759.0918,282,1769.0918,286,1759.0918,282,1763.0918" style="stroke:#181818;stroke-width:1.0;"/><line style="stroke:#181818;stroke-width:1.0;" x1="178.5" x2="168.5" y1="1838.0215" y2="1838.0215"/><line style="stroke:#181818;stroke-width:1.0;" x1="168.5" x2="168.5" y1="1838.0215" y2="1861.8574"/><polygon fill="#181818" points="164.5,1851.8574,168.5,1861.8574,172.5,1851.8574,168.5,1855.8574" style="stroke:#181818;stroke-width:1.0;"/><line style="stroke:#181818;stroke-width:1.0;" x1="385.5" x2="395.5" y1="1838.0215" y2="1838.0215"/><line style="stroke:#181818;stroke-width:1.0;" x1="395.5" x2="395.5" y1="1838.0215" y2="1861.8574"/><polygon fill="#181818" points="391.5,1851.8574,395.5,1861.8574,399.5,1851.8574,395.5,1855.8574" style="stroke:#181818;stroke-width:1.0;"/><line style="stroke:#181818;stroke-width:1.0;" x1="168.5" x2="168.5" y1="1896.9512" y2="1914.9512"/><line style="stroke:#181818;stroke-width:1.0;" x1="168.5" x2="270" y1="1914.9512" y2="1914.9512"/><polygon fill="#181818" points="260,1910.9512,270,1914.9512,260,1918.9512,264,1914.9512" style="stroke:#181818;stroke-width:1.0;"/><line style="stroke:#181818;stroke-width:1.0;" x1="395.5" x2="395.5" y1="1896.9512" y2="1914.9512"/><line style="stroke:#181818;stroke-width:1.0;" x1="395.5" x2="294" y1="1914.9512" y2="1914.9512"/><polygon fill="#181818" points="304,1910.9512,294,1914.9512,304,1918.9512,300,1914.9512" style="stroke:#181818;stroke-width:1.0;"/><line style="stroke:#181818;stroke-width:1.0;" x1="282" x2="282" y1="1804.1855" y2="1824.1855"/><polygon fill="#181818" points="278,1814.1855,282,1824.1855,286,1814.1855,282,1818.1855" style="stroke:#181818;stroke-width:1.0;"/><line style="stroke:#181818;stroke-width:1.0;" x1="282" x2="282" y1="1926.9512" y2="1946.9512"/><polygon fill="#181818" points="278,1936.9512,282,1946.9512,286,1936.9512,282,1940.9512" style="stroke:#181818;stroke-width:1.0;"/><line style="stroke:#181818;stroke-width:1.0;" x1="282" x2="282" y1="1982.0449" y2="2002.0449"/><polygon fill="#181818" points="278,1992.0449,282,2002.0449,286,1992.0449,282,1996.0449" style="stroke:#181818;stroke-width:1.0;"/><line style="stroke:#181818;stroke-width:1.0;" x1="185" x2="175" y1="2070.9746" y2="2070.9746"/><line style="stroke:#181818;stroke-width:1.0;" x1="175" x2="175" y1="2070.9746" y2="2094.8105"/><polygon fill="#181818" points="171,2084.8105,175,2094.8105,179,2084.8105,175,2088.8105" style="stroke:#181818;stroke-width:1.0;"/><line style="stroke:#181818;stroke-width:1.0;" x1="379" x2="389" y1="2070.9746" y2="2070.9746"/><line style="stroke:#181818;stroke-width:1.0;" x1="389" x2="389" y1="2070.9746" y2="2094.8105"/><polygon fill="#181818" points="385,2084.8105,389,2094.8105,393,2084.8105,389,2088.8105" style="stroke:#181818;stroke-width:1.0;"/><line style="stroke:#181818;stroke-width:1.0;" x1="175" x2="175" y1="2129.9043" y2="2147.9043"/><line style="stroke:#181818;stroke-width:1.0;" x1="175" x2="270" y1="2147.9043" y2="2147.9043"/><polygon fill="#181818" points="260,2143.9043,270,2147.9043,260,2151.9043,264,2147.9043" style="stroke:#181818;stroke-width:1.0;"/><line style="stroke:#181818;stroke-width:1.0;" x1="389" x2="389" y1="2129.9043" y2="2147.9043"/><line style="stroke:#181818;stroke-width:1.0;" x1="389" x2="294" y1="2147.9043" y2="2147.9043"/><polygon fill="#181818" points="304,2143.9043,294,2147.9043,304,2151.9043,300,2147.9043" style="stroke:#181818;stroke-width:1.0;"/><line style="stroke:#181818;stroke-width:1.0;" x1="282" x2="282" y1="2037.1387" y2="2057.1387"/><polygon fill="#181818" points="278,2047.1387,282,2057.1387,286,2047.1387,282,2051.1387" style="stroke:#181818;stroke-width:1.0;"/><line style="stroke:#181818;stroke-width:1.0;" x1="282" x2="282" y1="2159.9043" y2="2179.9043"/><polygon fill="#181818" points="278,2169.9043,282,2179.9043,286,2169.9043,282,2173.9043" style="stroke:#181818;stroke-width:1.0;"/><line style="stroke:#181818;stroke-width:1.0;" x1="282" x2="282" y1="462.3301" y2="487.248"/><polygon fill="#181818" points="278,477.248,282,487.248,286,477.248,282,481.248" style="stroke:#181818;stroke-width:1.0;"/><line style="stroke:#181818;stroke-width:1.0;" x1="391.5" x2="414.5" y1="448.4941" y2="448.4941"/><polygon fill="#181818" points="404.5,444.4941,414.5,448.4941,404.5,452.4941,408.5,448.4941" style="stroke:#181818;stroke-width:1.0;"/><line style="stroke:#181818;stroke-width:1.0;" x1="282" x2="282" y1="414.6582" y2="434.6582"/><polygon fill="#181818" points="278,424.6582,282,434.6582,286,424.6582,282,428.6582" style="stroke:#181818;stroke-width:1.0;"/><line style="stroke:#181818;stroke-width:1.0;" x1="282" x2="282" y1="656.5293" y2="661.5293"/><line style="stroke:#181818;stroke-width:1.0;" x1="282" x2="832" y1="661.5293" y2="661.5293"/><line style="stroke:#181818;stroke-width:1.0;" x1="832" x2="832" y1="661.5293" y2="676.5293"/><polygon fill="#181818" points="828,666.5293,832,676.5293,836,666.5293,832,670.5293" style="stroke:#181818;stroke-width:1.0;"/><line style="stroke:#181818;stroke-width:1.0;" x1="832" x2="832" y1="711.623" y2="716.623"/><line style="stroke:#181818;stroke-width:1.0;" x1="832" x2="282" y1="716.623" y2="716.623"/><line style="stroke:#181818;stroke-width:1.0;" x1="282" x2="282" y1="716.623" y2="731.623"/><polygon fill="#181818" points="278,721.623,282,731.623,286,721.623,282,725.623" style="stroke:#181818;stroke-width:1.0;"/><line style="stroke:#181818;stroke-width:1.0;" x1="282" x2="282" y1="904.5762" y2="909.5762"/><line style="stroke:#181818;stroke-width:1.0;" x1="282" x2="1042" y1="909.5762" y2="909.5762"/><line style="stroke:#181818;stroke-width:1.0;" x1="1042" x2="1042" y1="909.5762" y2="924.5762"/><polygon fill="#181818" points="1038,914.5762,1042,924.5762,1046,914.5762,1042,918.5762" style="stroke:#181818;stroke-width:1.0;"/><line style="stroke:#181818;stroke-width:1.0;" x1="1042" x2="1042" y1="974.7637" y2="979.7637"/><line style="stroke:#181818;stroke-width:1.0;" x1="1042" x2="282" y1="979.7637" y2="979.7637"/><line style="stroke:#181818;stroke-width:1.0;" x1="282" x2="282" y1="979.7637" y2="994.7637"/><polygon fill="#181818" points="278,984.7637,282,994.7637,286,984.7637,282,988.7637" style="stroke:#181818;stroke-width:1.0;"/><text fill="#000000" font-family="sans-serif" font-size="18" lengthAdjust="spacing" textLength="122" x="313" y="31.1406">Doctrine SI-CM</text><text fill="#000000" font-family="sans-serif" font-size="18" lengthAdjust="spacing" textLength="123" x="769.5" y="31.1406">Doctrine CI-SIS</text><text fill="#000000" font-family="sans-serif" font-size="18" lengthAdjust="spacing" textLength="123" x="979.5" y="31.1406">Doctrine CGTS</text><!--SRC=[nLRDRjf04BxlKuoKGq4ghKBfZ-1GLKGbI4HAGjBxnfwOKUrTkhkkXEG7Ai_1YsKMOvU2ZPqeKirbCJFVp7pVp2pPXGwS8OKmd_R6LvaGradZnDd48AhtuvLKm_52aoK3gO9OgaX62252eiFDEYOh7MdblLGeJJWIm_kh6SFG8tHcMEi0PhDUQXNsN8zYa2ayeDMaldR1BL11PuMsAm3oD8RtZjWH3J3sI61i4JfARmqECvIfC_LXHq9fXs0eMhWX10jCI875W3EHn7vdvm9LI8-2dneAbaO7Q6rgAy27u-j9JwlUzylfBKmdy2sY6E4wzyWAJd841Z1ebnYud8COBVz2Ag0bdyJWdV-SluNyqFVHOWbX8LUOveh18MM7GLw9-LELLKbohCafuXfKwHUgr6ZYqVvmFk4RKe_Q97cXUqsPbMq-dlRcqtacXbULFeLBjkTIJCQEsUIa8uYNyRibzWSQwy5k1-qeFPrA8wqV6fkz3830RagIjL85lZyvYADVAHyhMPxSxNFy71ZetA7XJ7Mi8sAksYXn25k1-a9PUEHqkfrDjvyLiAbX9fE4uJThFxgIZVF2dwdT4IS0LUGsQ3beEo97uKAsJ0xOygii9aM1ZE4cbJ6v5SnufwP-gOhE-6RMpHfL25TA9gyZ0mVyBwn-h6AL3SkeeQyJBKNAju3Z9k5CJB0WnuizDKmVjqTWo37FacrYB9VyRhCFQZVxg7ukIpxzvBlDEZBb3NGnXqkjV_wzRcfiNon54Q2T8BMPDZ3_wNG_CsKK82lhsLkc3_ojO62cV_TtnSi3gvtHtXM8CIiYMXVliHlgnk8lI4r-3NL_RfZZVCqVLyrtihz2IjKhxVwz-zkNlGDlftXDXWrrVodgjaulnVRP3-RVZlBNJm00]--></g></svg>